<?xml version="1.0" encoding="UTF-8"?>
<svg version="1.1" xmlns="http://www.w3.org/2000/svg" width="506" height="585">
<path d="M0 0 C0.89235352 0.52770996 1.78470703 1.05541992 2.70410156 1.59912109 C4.23357422 2.4934082 4.23357422 2.4934082 5.79394531 3.40576172 C6.88320313 4.05480469 7.97246094 4.70384766 9.09472656 5.37255859 C10.25170008 6.05258037 11.40926369 6.73159906 12.56738281 7.40966797 C14.97137804 8.81823183 17.37278429 10.231065 19.77246094 11.64697266 C25.27307536 14.88772837 30.81076065 18.06422182 36.34472656 21.24755859 C38.5115669 22.49725751 40.67823306 23.74725849 42.84472656 24.99755859 C44.45347656 25.92568359 44.45347656 25.92568359 46.09472656 26.87255859 C115.96972656 67.18505859 115.96972656 67.18505859 185.84472656 107.49755859 C186.91811279 108.11679199 187.99149902 108.73602539 189.09741211 109.37402344 C191.25522459 110.61897141 193.41294009 111.86408749 195.57055664 113.109375 C201.12189249 116.3130851 206.67509198 119.5134949 212.23144531 122.70849609 C213.37033203 123.36398438 214.50921875 124.01947266 215.68261719 124.69482422 C217.82260144 125.92640699 219.96316882 127.15697745 222.10449219 128.38623047 C224.06219634 129.51347066 226.00461952 130.66780659 227.92822933 131.85229015 C230.46310307 133.25848658 232.47999095 134.18578592 235.16192722 135.09415913 C239.66892053 136.82715116 243.41887822 138.80751548 246.34472656 142.74755859 C249.16794008 150.8690815 248.51282751 159.94730088 248.43752801 168.44256151 C248.42205632 172.01600552 248.49284165 175.58793605 248.55192566 179.16078186 C248.65315624 186.15316988 248.67234822 193.1434491 248.65996122 200.13647141 C248.65067323 205.82384011 248.66740192 211.51056021 248.70240974 217.19782448 C248.71232187 218.83876937 248.72223263 220.47971427 248.73214203 222.12065917 C248.73955254 223.34596619 248.73955254 223.34596619 248.74711276 224.59602688 C248.8363806 240.03292246 248.82683567 255.46861265 248.78805024 270.90563706 C248.75583451 285.00730733 248.85198665 299.10470027 249.0084263 313.20542898 C249.16803136 327.70422227 249.23801048 342.20097957 249.21290547 356.70066386 C249.20046095 364.8335741 249.22326313 372.96265509 249.34072685 381.09482384 C249.4398675 388.02118345 249.45418408 394.94152572 249.36145758 401.8680767 C249.31647792 405.39984392 249.30888176 408.92050958 249.40753174 412.45143509 C249.87107154 433.05745894 249.87107154 433.05745894 243.96321607 439.2396605 C238.15596722 443.67965635 231.84624095 446.75541124 225.12291253 449.55972731 C221.61488821 451.05960567 218.4773036 452.87694218 215.22753906 454.86865234 C213.30862004 455.97473167 211.38935784 457.08021587 209.46972656 458.18505859 C207.28482118 459.44415661 205.09992564 460.7032717 202.91503906 461.96240234 C201.8299707 462.58743652 200.74490234 463.2124707 199.62695312 463.85644531 C194.19812714 466.98436008 188.77153375 470.11614307 183.34472656 473.24755859 C181.17807074 474.49757738 179.01140407 475.74757738 176.84472656 476.99755859 C175.77222656 477.61630859 174.69972656 478.23505859 173.59472656 478.87255859 C59.84472656 544.49755859 59.84472656 544.49755859 56.5925293 546.3737793 C54.43313262 547.61961629 52.27378987 548.86554678 50.11450195 550.11157227 C44.58705059 553.30104812 39.05857535 556.48872744 33.52832031 559.67333984 C32.40796387 560.31907959 31.28760742 560.96481934 30.13330078 561.63012695 C27.92388925 562.9025587 25.71330231 564.17295199 23.50146484 565.44116211 C18.69792822 568.20166717 13.92018291 570.98475122 9.21582031 573.91162109 C8.44633057 574.38494873 7.67684082 574.85827637 6.8840332 575.34594727 C5.50259113 576.20068046 4.12960582 577.06934215 2.76831055 577.95581055 C-0.83277284 580.17329713 -4.11169922 581.54384901 -8.39990234 581.29321289 C-13.5871134 580.03824247 -18.02599405 576.94609524 -22.53027344 574.18505859 C-23.67760857 573.49961626 -24.82607041 572.81605675 -25.97558594 572.13427734 C-28.35988871 570.71817225 -30.73916838 569.29413678 -33.11523438 567.86425781 C-38.58423262 564.58229833 -44.12324035 561.42164146 -49.65527344 558.24755859 C-51.82226568 556.99812309 -53.98893152 555.74812132 -56.15527344 554.49755859 C-57.76402344 553.56943359 -57.76402344 553.56943359 -59.40527344 552.62255859 C-105.98860677 525.74755859 -152.5719401 498.87255859 -199.15527344 471.99755859 C-200.22865967 471.3783252 -201.3020459 470.7590918 -202.40795898 470.12109375 C-204.56577147 468.87614578 -206.72348696 467.63102969 -208.88110352 466.38574219 C-214.43243936 463.18203209 -219.98563885 459.98162229 -225.54199219 456.78662109 C-226.68087891 456.13113281 -227.81976563 455.47564453 -228.99316406 454.80029297 C-231.13314832 453.56871019 -233.2737157 452.33813974 -235.41503906 451.10888672 C-237.37274322 449.98164653 -239.3151664 448.8273106 -241.23877621 447.64282703 C-243.77364994 446.23663061 -245.79053783 445.30933127 -248.4724741 444.40095806 C-252.9794674 442.66796603 -256.7294251 440.68760171 -259.65527344 436.74755859 C-262.47848696 428.62603569 -261.82337439 419.54781631 -261.74807489 411.05255568 C-261.7326032 407.47911167 -261.80338853 403.90718114 -261.86247253 400.33433533 C-261.96370311 393.34194731 -261.98289509 386.35166809 -261.97050809 379.35864577 C-261.9612201 373.67127708 -261.9779488 367.98455698 -262.01295662 362.29729271 C-262.02286875 360.65634782 -262.03277951 359.01540292 -262.04268891 357.37445801 C-262.05009942 356.149151 -262.05009942 356.149151 -262.05765963 354.89909031 C-262.14692747 339.46219473 -262.13738254 324.02650454 -262.09859712 308.58948012 C-262.06638139 294.48780986 -262.16253352 280.39041691 -262.31897318 266.28968821 C-262.47857823 251.79089491 -262.54855735 237.29413762 -262.52345234 222.79445332 C-262.51100783 214.66154309 -262.53381 206.5324621 -262.65127373 198.40029335 C-262.75041438 191.47393373 -262.76473096 184.55359147 -262.67200445 177.62704048 C-262.62702479 174.09527327 -262.61942863 170.57460761 -262.71807861 167.0436821 C-263.18161842 146.43765824 -263.18161842 146.43765824 -257.27376294 140.25545669 C-251.46651409 135.81546084 -245.15678782 132.73970595 -238.4334594 129.93538988 C-234.92543509 128.43551151 -231.78785048 126.61817501 -228.53808594 124.62646484 C-226.61916692 123.52038552 -224.69990471 122.41490132 -222.78027344 121.31005859 C-220.59536806 120.05096058 -218.41047251 118.79184549 -216.22558594 117.53271484 C-215.14051758 116.90768066 -214.05544922 116.28264648 -212.9375 115.63867188 C-207.50867401 112.51075711 -202.08208063 109.37897412 -196.65527344 106.24755859 C-194.48861761 104.9975398 -192.32195094 103.74753981 -190.15527344 102.49755859 C-189.08277344 101.87880859 -188.01027344 101.26005859 -186.90527344 100.62255859 C-73.15527344 34.99755859 -73.15527344 34.99755859 -69.90356445 33.12158203 C-67.74258356 31.87485604 -65.58161346 30.62811132 -63.4206543 29.38134766 C-57.91708493 26.20609976 -52.41331311 23.03120364 -46.90917969 19.85693359 C-45.24387207 18.8959375 -45.24387207 18.8959375 -43.54492188 17.91552734 C-41.35019682 16.65035564 -39.15425777 15.38728725 -36.95703125 14.12646484 C-31.94162462 11.24471818 -26.95020423 8.33603703 -22.01074219 5.32568359 C-20.70931274 4.54209473 -20.70931274 4.54209473 -19.3815918 3.74267578 C-17.78404344 2.77813017 -16.19429079 1.80049501 -14.61450195 0.80712891 C-13.91123779 0.3852832 -13.20797363 -0.0365625 -12.48339844 -0.47119141 C-11.58476074 -1.02709961 -11.58476074 -1.02709961 -10.66796875 -1.59423828 C-6.81981801 -2.85268253 -3.55123182 -1.67504774 0 0 Z " fill="#3C4754" transform="translate(259.6552734375,4.25244140625)"/>
<path d="M0 0 C0.89235352 0.52770996 1.78470703 1.05541992 2.70410156 1.59912109 C4.23357422 2.4934082 4.23357422 2.4934082 5.79394531 3.40576172 C6.88320313 4.05480469 7.97246094 4.70384766 9.09472656 5.37255859 C10.25170008 6.05258037 11.40926369 6.73159906 12.56738281 7.40966797 C14.97137804 8.81823183 17.37278429 10.231065 19.77246094 11.64697266 C25.27307536 14.88772837 30.81076065 18.06422182 36.34472656 21.24755859 C38.5115669 22.49725751 40.67823306 23.74725849 42.84472656 24.99755859 C44.45347656 25.92568359 44.45347656 25.92568359 46.09472656 26.87255859 C115.96972656 67.18505859 115.96972656 67.18505859 185.84472656 107.49755859 C186.91811279 108.11679199 187.99149902 108.73602539 189.09741211 109.37402344 C191.25522459 110.61897141 193.41294009 111.86408749 195.57055664 113.109375 C201.12189249 116.3130851 206.67509198 119.5134949 212.23144531 122.70849609 C213.37033203 123.36398438 214.50921875 124.01947266 215.68261719 124.69482422 C217.82260144 125.92640699 219.96316882 127.15697745 222.10449219 128.38623047 C224.06219634 129.51347066 226.00461952 130.66780659 227.92822933 131.85229015 C230.46310307 133.25848658 232.47999095 134.18578592 235.16192722 135.09415913 C239.66892053 136.82715116 243.41887822 138.80751548 246.34472656 142.74755859 C249.16794008 150.8690815 248.51282751 159.94730088 248.43752801 168.44256151 C248.42205632 172.01600552 248.49284165 175.58793605 248.55192566 179.16078186 C248.65315624 186.15316988 248.67234822 193.1434491 248.65996122 200.13647141 C248.65067323 205.82384011 248.66740192 211.51056021 248.70240974 217.19782448 C248.71232187 218.83876937 248.72223263 220.47971427 248.73214203 222.12065917 C248.73955254 223.34596619 248.73955254 223.34596619 248.74711276 224.59602688 C248.8363806 240.03292246 248.82683567 255.46861265 248.78805024 270.90563706 C248.75583451 285.00730733 248.85198665 299.10470027 249.0084263 313.20542898 C249.16803136 327.70422227 249.23801048 342.20097957 249.21290547 356.70066386 C249.20046095 364.8335741 249.22326313 372.96265509 249.34072685 381.09482384 C249.4398675 388.02118345 249.45418408 394.94152572 249.36145758 401.8680767 C249.31647792 405.39984392 249.30888176 408.92050958 249.40753174 412.45143509 C249.87107154 433.05745894 249.87107154 433.05745894 243.96321607 439.2396605 C238.15596722 443.67965635 231.84624095 446.75541124 225.12291253 449.55972731 C221.61488821 451.05960567 218.4773036 452.87694218 215.22753906 454.86865234 C213.30862004 455.97473167 211.38935784 457.08021587 209.46972656 458.18505859 C207.28482118 459.44415661 205.09992564 460.7032717 202.91503906 461.96240234 C201.8299707 462.58743652 200.74490234 463.2124707 199.62695312 463.85644531 C194.19812714 466.98436008 188.77153375 470.11614307 183.34472656 473.24755859 C181.17807074 474.49757738 179.01140407 475.74757738 176.84472656 476.99755859 C175.77222656 477.61630859 174.69972656 478.23505859 173.59472656 478.87255859 C59.84472656 544.49755859 59.84472656 544.49755859 56.5925293 546.3737793 C54.43313262 547.61961629 52.27378987 548.86554678 50.11450195 550.11157227 C44.58705059 553.30104812 39.05857535 556.48872744 33.52832031 559.67333984 C32.40796387 560.31907959 31.28760742 560.96481934 30.13330078 561.63012695 C27.92388925 562.9025587 25.71330231 564.17295199 23.50146484 565.44116211 C18.69792822 568.20166717 13.92018291 570.98475122 9.21582031 573.91162109 C8.44633057 574.38494873 7.67684082 574.85827637 6.8840332 575.34594727 C5.50259113 576.20068046 4.12960582 577.06934215 2.76831055 577.95581055 C-0.83277284 580.17329713 -4.11169922 581.54384901 -8.39990234 581.29321289 C-13.5871134 580.03824247 -18.02599405 576.94609524 -22.53027344 574.18505859 C-23.67760857 573.49961626 -24.82607041 572.81605675 -25.97558594 572.13427734 C-28.35988871 570.71817225 -30.73916838 569.29413678 -33.11523438 567.86425781 C-38.58423262 564.58229833 -44.12324035 561.42164146 -49.65527344 558.24755859 C-51.82226568 556.99812309 -53.98893152 555.74812132 -56.15527344 554.49755859 C-57.76402344 553.56943359 -57.76402344 553.56943359 -59.40527344 552.62255859 C-105.98860677 525.74755859 -152.5719401 498.87255859 -199.15527344 471.99755859 C-200.22865967 471.3783252 -201.3020459 470.7590918 -202.40795898 470.12109375 C-204.56577147 468.87614578 -206.72348696 467.63102969 -208.88110352 466.38574219 C-214.43243936 463.18203209 -219.98563885 459.98162229 -225.54199219 456.78662109 C-226.68087891 456.13113281 -227.81976563 455.47564453 -228.99316406 454.80029297 C-231.13314832 453.56871019 -233.2737157 452.33813974 -235.41503906 451.10888672 C-237.37274322 449.98164653 -239.3151664 448.8273106 -241.23877621 447.64282703 C-243.77364994 446.23663061 -245.79053783 445.30933127 -248.4724741 444.40095806 C-252.9794674 442.66796603 -256.7294251 440.68760171 -259.65527344 436.74755859 C-262.47848696 428.62603569 -261.82337439 419.54781631 -261.74807489 411.05255568 C-261.7326032 407.47911167 -261.80338853 403.90718114 -261.86247253 400.33433533 C-261.96370311 393.34194731 -261.98289509 386.35166809 -261.97050809 379.35864577 C-261.9612201 373.67127708 -261.9779488 367.98455698 -262.01295662 362.29729271 C-262.02286875 360.65634782 -262.03277951 359.01540292 -262.04268891 357.37445801 C-262.05009942 356.149151 -262.05009942 356.149151 -262.05765963 354.89909031 C-262.14692747 339.46219473 -262.13738254 324.02650454 -262.09859712 308.58948012 C-262.06638139 294.48780986 -262.16253352 280.39041691 -262.31897318 266.28968821 C-262.47857823 251.79089491 -262.54855735 237.29413762 -262.52345234 222.79445332 C-262.51100783 214.66154309 -262.53381 206.5324621 -262.65127373 198.40029335 C-262.75041438 191.47393373 -262.76473096 184.55359147 -262.67200445 177.62704048 C-262.62702479 174.09527327 -262.61942863 170.57460761 -262.71807861 167.0436821 C-263.18161842 146.43765824 -263.18161842 146.43765824 -257.27376294 140.25545669 C-251.46651409 135.81546084 -245.15678782 132.73970595 -238.4334594 129.93538988 C-234.92543509 128.43551151 -231.78785048 126.61817501 -228.53808594 124.62646484 C-226.61916692 123.52038552 -224.69990471 122.41490132 -222.78027344 121.31005859 C-220.59536806 120.05096058 -218.41047251 118.79184549 -216.22558594 117.53271484 C-215.14051758 116.90768066 -214.05544922 116.28264648 -212.9375 115.63867188 C-207.50867401 112.51075711 -202.08208063 109.37897412 -196.65527344 106.24755859 C-194.48861761 104.9975398 -192.32195094 103.74753981 -190.15527344 102.49755859 C-189.08277344 101.87880859 -188.01027344 101.26005859 -186.90527344 100.62255859 C-73.15527344 34.99755859 -73.15527344 34.99755859 -69.90356445 33.12158203 C-67.74258356 31.87485604 -65.58161346 30.62811132 -63.4206543 29.38134766 C-57.91708493 26.20609976 -52.41331311 23.03120364 -46.90917969 19.85693359 C-45.24387207 18.8959375 -45.24387207 18.8959375 -43.54492188 17.91552734 C-41.35019682 16.65035564 -39.15425777 15.38728725 -36.95703125 14.12646484 C-31.94162462 11.24471818 -26.95020423 8.33603703 -22.01074219 5.32568359 C-20.70931274 4.54209473 -20.70931274 4.54209473 -19.3815918 3.74267578 C-17.78404344 2.77813017 -16.19429079 1.80049501 -14.61450195 0.80712891 C-13.91123779 0.3852832 -13.20797363 -0.0365625 -12.48339844 -0.47119141 C-11.58476074 -1.02709961 -11.58476074 -1.02709961 -10.66796875 -1.59423828 C-6.81981801 -2.85268253 -3.55123182 -1.67504774 0 0 Z M-15.78027344 17.81005859 C-17.30805478 18.73206551 -18.83676272 19.65253814 -20.36621094 20.57177734 C-21.20635742 21.0788623 -22.04650391 21.58594727 -22.91210938 22.10839844 C-28.04143321 25.17339312 -33.22619457 28.14268975 -38.40527344 31.12255859 C-39.52224609 31.76644531 -40.63921875 32.41033203 -41.79003906 33.07373047 C-49.45024972 37.48711183 -57.12606611 41.87262359 -64.80688477 46.25 C-72.6371518 50.72079358 -80.4227212 55.26707564 -88.20654297 59.81811523 C-94.40705165 63.44187412 -100.6271535 67.02561433 -106.87011719 70.57568359 C-112.00802358 73.5116301 -117.10932247 76.51078367 -122.21777344 79.49755859 C-133.32252038 85.98722219 -144.47716522 92.38531518 -155.65527344 98.74755859 C-166.37839539 104.85157985 -177.08771852 110.97197802 -187.71069336 117.24902344 C-191.8608937 119.6993371 -196.02810969 122.11500283 -200.21777344 124.49755859 C-207.7150125 128.76188416 -215.15945025 133.11553024 -222.6027832 137.47314453 C-230.25886954 141.95020878 -237.95355269 146.34657531 -245.65527344 150.74755859 C-245.65527344 242.48755859 -245.65527344 334.22755859 -245.65527344 428.74755859 C-238.72527344 432.70755859 -231.79527344 436.66755859 -224.65527344 440.74755859 C-220.65081611 443.07395761 -216.64946403 445.40383601 -212.65527344 447.74755859 C-205.178445 452.12235012 -197.68360788 456.46201181 -190.15527344 460.74755859 C-182.77287223 464.95011701 -175.42408837 469.20652649 -168.09277344 473.49755859 C-159.31141817 478.63619301 -150.49513141 483.71053827 -141.65527344 488.74755859 C-131.93402137 494.28740563 -122.24632463 499.88130798 -112.58837891 505.53100586 C-102.06442719 511.68522601 -91.50147206 517.77125855 -80.9375 523.85644531 C-74.43167734 527.60489089 -67.92883261 531.35850041 -61.42553711 535.11132812 C-55.89790063 538.30084654 -50.36927962 541.48863681 -44.83886719 544.67333984 C-43.71834961 545.31916016 -42.59783203 545.96498047 -41.44335938 546.63037109 C-39.23553266 547.90191455 -37.02657386 549.17149465 -34.81640625 550.43896484 C-29.98918238 553.21346994 -25.18768639 556.0117115 -20.45605469 558.94677734 C-19.6775415 559.4246167 -18.89902832 559.90245605 -18.09692383 560.39477539 C-16.68991575 561.26324278 -15.29107535 562.14516592 -13.90307617 563.04370117 C-11.03586331 564.80579137 -9.05008732 565.74653043 -5.65527344 565.75537109 C-1.92224847 564.50130802 1.27087419 562.68998586 4.59472656 560.62255859 C6.11075813 559.70571161 7.62774914 558.79044991 9.14550781 557.87646484 C9.9738916 557.37518066 10.80227539 556.87389648 11.65576172 556.35742188 C16.6607092 553.36099699 21.72498484 550.46703047 26.78222656 547.56005859 C29.03099498 546.26460806 31.27969197 544.96903351 33.52832031 543.67333984 C35.22190674 542.6980835 35.22190674 542.6980835 36.94970703 541.703125 C42.41642636 538.55423806 47.88047543 535.40072596 53.34472656 532.24755859 C55.51137967 530.99753509 57.67804636 529.74753513 59.84472656 528.49755859 C61.45347656 527.56943359 61.45347656 527.56943359 63.09472656 526.62255859 C72.84472656 520.9975586 72.84472656 520.9975586 76.09521484 519.12231445 C78.26029727 517.87320341 80.42533638 516.6240173 82.59033203 515.37475586 C88.03088362 512.2355355 93.47219872 509.09765297 98.91503906 505.96240234 C109.36678856 499.94008531 119.80772204 493.90086522 130.21972656 487.81005859 C139.48972434 482.38834682 148.80304408 477.04550944 158.13317871 471.72833252 C167.24815424 466.53246606 176.32861701 461.2802812 185.38305664 455.97949219 C190.63183884 452.90825182 195.88919071 449.85312546 201.16113281 446.82177734 C202.02294159 446.32613533 202.02294159 446.32613533 202.90216064 445.82048035 C205.6597099 444.23492594 208.41845467 442.65151866 211.17919922 441.0715332 C213.15410732 439.93685356 215.11446293 438.77629185 217.056036 437.58547115 C220.34472656 435.74755859 220.34472656 435.74755859 223.71964455 434.56317234 C227.75895116 432.87914635 230.79931638 431.38441973 233.34472656 427.74755859 C236.02319585 419.52698855 235.24698574 410.27526583 235.21728516 401.74145508 C235.25455947 399.04520746 235.29679763 396.34943472 235.34472656 393.65339661 C235.44865301 387.09457194 235.48086386 380.53729871 235.48466246 373.97772168 C235.48811354 368.6417267 235.51252355 363.30623476 235.55159378 357.9703846 C235.66028649 342.82020802 235.71568794 327.67122893 235.70110063 312.52066147 C235.70031848 311.70471476 235.69953632 310.88876806 235.69873047 310.0480957 C235.69793671 309.23114469 235.69714295 308.41419369 235.69632514 307.57248659 C235.68669409 294.34421814 235.80308302 281.12048269 235.97730808 267.89347386 C236.15506088 254.29085273 236.23889024 240.69042944 236.22565329 227.08661896 C236.22010395 219.45687692 236.2522709 211.83176285 236.38532639 204.20306206 C236.49791877 197.70365085 236.52235127 191.21104136 236.43593256 184.7111113 C236.39427964 181.39429949 236.40510785 178.10086297 236.49982071 174.78358841 C236.87677166 162.90643314 236.87677166 162.90643314 233.34472656 151.74755859 C227.29005086 145.47879863 219.49982356 141.83606847 211.65162778 138.28938401 C206.18427609 135.74025985 201.00998278 132.68662803 195.78222656 129.68505859 C193.69795825 128.52320498 191.61221264 127.36399396 189.52441406 126.20849609 C181.42511226 121.69417289 173.43409568 116.99801909 165.43457031 112.31005859 C159.12902237 108.61542549 152.8017822 104.95903178 146.46972656 101.31005859 C145.38957275 100.68752197 144.30941895 100.06498535 143.1965332 99.42358398 C141.00676322 98.16179033 138.81690301 96.90015326 136.62695312 95.63867188 C131.19812714 92.51075711 125.77153375 89.37897412 120.34472656 86.24755859 C118.17807074 84.9975398 116.01140407 83.74753981 113.84472656 82.49755859 C92.1780599 69.99755859 70.51139323 57.49755859 48.84472656 44.99755859 C47.77077637 44.37800293 46.69682617 43.75844727 45.59033203 43.12011719 C43.43820526 41.87844332 41.28618583 40.63658338 39.13427734 39.39453125 C34.0944168 36.48589036 29.05355165 33.57903961 24.00872803 30.67901611 C22.22723078 29.65480195 20.44608334 28.62998208 18.66503906 27.60498047 C16.43396031 26.32122484 14.20223083 25.0385992 11.96972656 23.75732422 C6.90062783 20.83904537 1.9005084 17.89849585 -2.93212891 14.59960938 C-7.90982765 12.138265 -11.64784885 15.25212514 -15.78027344 17.81005859 Z " fill="#D3D9D9" transform="translate(259.6552734375,4.25244140625)"/>
<path d="M0 0 C2.82272228 1.37873487 5.53444076 2.92243591 8.25 4.5 C9.34828125 5.12455078 9.34828125 5.12455078 10.46875 5.76171875 C15.82893669 8.82893669 15.82893669 8.82893669 17 10 C17.08726223 11.78071246 17.10699041 13.5648314 17.09765625 15.34765625 C17.09443359 16.42724609 17.09121094 17.50683594 17.08789062 18.61914062 C17.07532227 20.32360352 17.07532227 20.32360352 17.0625 22.0625 C17.05798828 23.20267578 17.05347656 24.34285156 17.04882812 25.51757812 C17.03699747 28.34510351 17.0205141 31.1725264 17 34 C14.43964079 35.46220279 11.8768644 36.91985153 9.3125 38.375 C8.59126953 38.7875 7.87003906 39.2 7.12695312 39.625 C5.71744159 40.42307959 4.29991484 41.20718951 2.87426758 41.97607422 C1.41597589 42.7727494 -0.0043227 43.63911445 -1.40625 44.53125 C-7.600465 45.65068645 -13.88398644 41.36397503 -18.91015625 38.08984375 C-22.55903431 35.08252667 -23.75051587 32.77922135 -24.55859375 28.12890625 C-24.69656101 25.98525837 -24.75953904 23.83556197 -24.75 21.6875 C-24.75233643 20.63771973 -24.75467285 19.58793945 -24.75708008 18.50634766 C-24.46111573 14.20197413 -24.16601961 11.16645535 -21.04003906 8.03930664 C-18.75569476 6.4991048 -16.46605409 5.22362488 -14 4 C-12.67742187 3.15115234 -12.67742187 3.15115234 -11.328125 2.28515625 C-10.64234375 1.88167969 -9.9565625 1.47820312 -9.25 1.0625 C-8.55390625 0.64097656 -7.8578125 0.21945313 -7.140625 -0.21484375 C-4.21819368 -1.28675743 -2.97049636 -0.98313303 0 0 Z " fill="#F59820" transform="translate(316,93)"/>
<path d="M0 0 C3.96 0 7.92 0 12 0 C12 14.52 12 29.04 12 44 C8.7 44 5.4 44 2 44 C1.67 43.34 1.34 42.68 1 42 C0.43152344 42.32226562 -0.13695312 42.64453125 -0.72265625 42.9765625 C-4.43386678 44.64437924 -8.01045493 44.58418338 -12 44 C-15.59504229 41.85827268 -17.50738656 39.87166981 -19 36 C-19.3359375 32.5390625 -19.3359375 32.5390625 -19.375 28.625 C-19.40335937 27.33851563 -19.43171875 26.05203125 -19.4609375 24.7265625 C-18.83662128 19.67912459 -16.65843938 16.77689933 -13.25 13.125 C-9.74675271 11.37337636 -6.90044277 11.75235284 -3 12 C-2.01 12.33 -1.02 12.66 0 13 C0 8.71 0 4.42 0 0 Z " fill="#F7F8F8" transform="translate(318,237)"/>
<path d="M0 0 C21 0 21 0 28 3 C32.24708161 7.58237752 33.365794 10.56679225 33.27734375 16.6796875 C32.84203773 20.32154351 31.43146136 22.31259534 29 25 C23.65328751 28.91222865 18.36489473 28.232862 12 28 C12 32.62 12 37.24 12 42 C8.04 42 4.08 42 0 42 C0 28.14 0 14.28 0 0 Z " fill="#F4F4F5" transform="translate(87,298)"/>
<path d="M0 0 C3.87850945 2.67801843 6.13291589 5.33624767 7.625 9.8125 C8.16362287 15.83057472 8.07104041 20.64343939 4.625 25.8125 C1.54951045 29.36853479 -0.53009522 30.61554395 -5.265625 31.12109375 C-15.45459696 31.51206593 -15.45459696 31.51206593 -19.5625 28.125 C-24.0544744 23.33281939 -24.89855137 18.84362808 -24.75390625 12.3828125 C-23.93674648 6.83960496 -21.10613035 3.10078305 -16.6875 -0.1875 C-10.93268451 -1.92480279 -5.68561585 -2.00049447 0 0 Z " fill="#F8F9F9" transform="translate(251.375,250.1875)"/>
<path d="M0 0 C3.93868077 2.04878299 5.93804899 4.34360406 7.83984375 8.26953125 C8.66998834 14.7723305 8.9831877 21.88318412 4.83984375 27.26953125 C0.97516966 31.13420534 -2.38758414 31.58937503 -7.66015625 31.76953125 C-12.93091435 31.58343387 -16.33991475 31.19030542 -20.16015625 27.26953125 C-23.63827857 21.58859813 -24.04276243 15.83453451 -23.16015625 9.26953125 C-18.67942549 -0.20893766 -9.78790723 -3.30983481 0 0 Z " fill="#FBFBFB" transform="translate(315.16015625,308.73046875)"/>
<path d="M0 0 C1.98 0 3.96 0 6 0 C8.25374117 5.76323254 10.07763927 11.52746533 11.6875 17.5 C11.91244141 18.32242188 12.13738281 19.14484375 12.36914062 19.9921875 C12.91611425 21.99387823 13.45853969 23.99681088 14 26 C14.14099121 25.35450195 14.28198242 24.70900391 14.42724609 24.04394531 C15.07101511 21.11139552 15.72291665 18.18071171 16.375 15.25 C16.70757812 13.72632812 16.70757812 13.72632812 17.046875 12.171875 C17.26601562 11.1921875 17.48515625 10.2125 17.7109375 9.203125 C17.90993652 8.30239258 18.10893555 7.40166016 18.31396484 6.47363281 C18.96907169 4.11151803 19.82348171 2.14310023 21 0 C22.98 0 24.96 0 27 0 C30.08718243 8.48975169 32.01048222 17.20370565 34 26 C34.38091797 24.54980469 34.38091797 24.54980469 34.76953125 23.0703125 C40.44619026 1.55380974 40.44619026 1.55380974 42 0 C43.99958364 -0.04080783 46.00045254 -0.04254356 48 0 C47.46423517 5.75947192 45.86460005 10.99767475 44.11328125 16.5 C42.65406354 21.08757569 41.29535516 25.70413009 39.9296875 30.3203125 C39 33 39 33 37 36 C33.875 36.1875 33.875 36.1875 31 36 C28.47359164 30.60695064 27.01791319 25.38319173 25.8125 19.5625 C25.63525391 18.73556641 25.45800781 17.90863281 25.27539062 17.05664062 C24.84389588 15.03911113 24.4210455 13.01973604 24 11 C23.823479 11.68626465 23.64695801 12.3725293 23.46508789 13.07958984 C22.66655465 16.17866558 21.86457151 19.27683821 21.0625 22.375 C20.78470703 23.45523438 20.50691406 24.53546875 20.22070312 25.6484375 C19.95322266 26.6796875 19.68574219 27.7109375 19.41015625 28.7734375 C19.16402588 29.72653809 18.91789551 30.67963867 18.66430664 31.66162109 C18 34 18 34 17 36 C14.69 36 12.38 36 10 36 C7.58544583 30.7203626 5.91174565 25.48364433 4.4375 19.875 C2.88721233 13.93591374 2.88721233 13.93591374 0.85546875 8.15234375 C-0.25163462 5.36689189 -0.13799325 2.96685488 0 0 Z " fill="#F5F5F6" transform="translate(206,97)"/>
<path d="M0 0 C1.1240625 -0.00257813 2.248125 -0.00515625 3.40625 -0.0078125 C6.5 0.125 6.5 0.125 10.5 1.125 C10.5 4.095 10.5 7.065 10.5 10.125 C9.61957031 10.07859375 8.73914063 10.0321875 7.83203125 9.984375 C6.67058594 9.94828125 5.50914062 9.9121875 4.3125 9.875 C3.16394531 9.82859375 2.01539063 9.7821875 0.83203125 9.734375 C-3.13979862 10.2000057 -4.68771485 11.34870387 -7.5 14.125 C-8.72485812 16.57471624 -8.66722808 18.26734461 -8.6875 21 C-8.70876953 22.29550781 -8.70876953 22.29550781 -8.73046875 23.6171875 C-8.47998826 26.34275485 -8.04598753 27.87185729 -6.5 30.125 C-3.11237916 32.59578768 0.16816344 32.33163673 4.25 32.25 C5.42046875 32.23195313 6.5909375 32.21390625 7.796875 32.1953125 C8.68890625 32.17210937 9.5809375 32.14890625 10.5 32.125 C10.5 35.095 10.5 38.065 10.5 41.125 C7.27630173 42.73684913 3.78811289 42.35121437 0.25 42.375 C-0.50152344 42.395625 -1.25304687 42.41625 -2.02734375 42.4375 C-6.93977554 42.47179272 -10.24052112 41.82520536 -14.5 39.125 C-21.05512407 32.27191574 -21.97330079 26.84047404 -21.80859375 17.578125 C-21.31733678 12.0810217 -19.89096741 8.3329003 -15.81640625 4.5703125 C-10.61251385 0.60863957 -6.52460274 -0.01496469 0 0 Z " fill="#F9FAFA" transform="translate(193.5,238.875)"/>
<path d="M0 0 C1.2890625 -0.00773437 2.578125 -0.01546875 3.90625 -0.0234375 C7.68600229 0.39562199 9.55208864 1.01453474 12.5 3.375 C14.3881446 6.42316489 14.77635788 8.84612459 14.87890625 12.40234375 C14.93014648 13.83803711 14.93014648 13.83803711 14.98242188 15.30273438 C15.00884766 16.29595703 15.03527344 17.28917969 15.0625 18.3125 C15.12274451 20.28006007 15.18643241 22.24751833 15.25390625 24.21484375 C15.27783447 25.08488037 15.3017627 25.95491699 15.32641602 26.85131836 C15.50387275 29.43130466 15.93871884 31.85305204 16.5 34.375 C13.5 36.375 13.5 36.375 10.5 36.375 C8.8125 34.875 8.8125 34.875 7.5 33.375 C7.00371094 33.66375 6.50742188 33.9525 5.99609375 34.25 C1.36512656 36.78077524 -2.10655116 38.27390814 -7.5 37.375 C-10.46349318 35.56620123 -12.92195706 33.53108588 -14.5 30.375 C-15.07791538 23.3244324 -15.07791538 23.3244324 -12.75 19.5 C-8.38616116 15.37859665 -5.22892781 15.13927911 0.75 15.25 C2.01328125 15.26804687 3.2765625 15.28609375 4.578125 15.3046875 C5.54234375 15.32789062 6.5065625 15.35109375 7.5 15.375 C7.23606499 11.94269552 7.23606499 11.94269552 6.5 8.375 C2.76269935 5.88346623 -0.17654816 5.96474545 -4.5 6.375 C-6.9120667 6.90093936 -9.15207188 7.59235729 -11.5 8.375 C-11.83 6.725 -12.16 5.075 -12.5 3.375 C-8.28533985 0.31126628 -5.16048365 -0.0309629 0 0 Z " fill="#F7F7F8" transform="translate(187.5,96.625)"/>
<path d="M0 0 C3.63 0 7.26 0 11 0 C11.33 7.26 11.66 14.52 12 22 C13.65 22 15.3 22 17 22 C17.33 14.74 17.66 7.48 18 0 C21.96 0 25.92 0 30 0 C30 9.9 30 19.8 30 30 C26.7 30 23.4 30 20 30 C20 29.34 20 28.68 20 28 C19.21625 28.495 18.4325 28.99 17.625 29.5 C13.14910989 31.35209246 8.77074503 32.19662252 4 31 C1.40799765 28.37432367 0.11184511 26.72765469 -0.45410156 23.0456543 C-0.4331543 21.98258057 -0.41220703 20.91950684 -0.390625 19.82421875 C-0.37773437 18.66728516 -0.36484375 17.51035156 -0.3515625 16.31835938 C-0.31804687 15.12017578 -0.28453125 13.92199219 -0.25 12.6875 C-0.23195313 11.46998047 -0.21390625 10.25246094 -0.1953125 8.99804688 C-0.14825131 5.99789578 -0.0825131 2.99935111 0 0 Z " fill="#F8F9F9" transform="translate(264,250)"/>
<path d="M0 0 C2.375 1.6875 2.375 1.6875 4.375 4.6875 C4.60205078 7.41479492 4.60205078 7.41479492 4.5703125 10.66796875 C4.56386719 11.83134766 4.55742187 12.99472656 4.55078125 14.19335938 C4.53402344 15.40830078 4.51726562 16.62324219 4.5 17.875 C4.49097656 19.10154297 4.48195312 20.32808594 4.47265625 21.59179688 C4.44906017 24.62389295 4.41613841 27.65559938 4.375 30.6875 C1.405 30.6875 -1.565 30.6875 -4.625 30.6875 C-4.625 30.0275 -4.625 29.3675 -4.625 28.6875 C-5.18316406 29.00847656 -5.74132812 29.32945312 -6.31640625 29.66015625 C-10.32728026 31.44502912 -14.33011615 31.34665019 -18.625 30.6875 C-21.745231 28.69055216 -23.21056388 27.40050264 -24.09375 23.75 C-24.40769696 19.60590008 -23.93250199 18.06783141 -21.25 14.75 C-17.6419036 11.91506711 -16.01195518 11.56715442 -11.5 11.625 C-10.58992187 11.63402344 -9.67984375 11.64304687 -8.7421875 11.65234375 C-8.04351562 11.66394531 -7.34484375 11.67554688 -6.625 11.6875 C-6.955 10.3675 -7.285 9.0475 -7.625 7.6875 C-9.20823688 7.660307 -10.79161062 7.64101694 -12.375 7.625 C-13.25671875 7.61339844 -14.1384375 7.60179687 -15.046875 7.58984375 C-17.4068838 7.67923802 -19.36998524 8.01837179 -21.625 8.6875 C-21.625 6.0475 -21.625 3.4075 -21.625 0.6875 C-14.85095371 -2.32318724 -6.92726417 -2.50814737 0 0 Z " fill="#F8F8F9" transform="translate(170.625,309.3125)"/>
<path d="M0 0 C1.5625 1.125 1.5625 1.125 2.5625 3.125 C2.64793895 5.23028933 2.66964725 7.33831157 2.66015625 9.4453125 C2.65693359 10.70214844 2.65371094 11.95898438 2.65039062 13.25390625 C2.64201172 14.57261719 2.63363281 15.89132812 2.625 17.25 C2.61998489 18.58984211 2.61542201 19.929686 2.61132812 21.26953125 C2.59951086 24.55473206 2.58303617 27.83984397 2.5625 31.125 C-1.0675 31.125 -4.6975 31.125 -8.4375 31.125 C-8.9325 19.74 -8.9325 19.74 -9.4375 8.125 C-11.4175 8.125 -13.3975 8.125 -15.4375 8.125 C-15.4375 15.385 -15.4375 22.645 -15.4375 30.125 C-19.0675 30.125 -22.6975 30.125 -26.4375 30.125 C-26.4375 20.225 -26.4375 10.325 -26.4375 0.125 C-17.4375 0.125 -17.4375 0.125 -14.4375 1.125 C-13.880625 0.815625 -13.32375 0.50625 -12.75 0.1875 C-8.65785333 -1.6926755 -4.2045136 -1.50931258 0 0 Z " fill="#FAFBFB" transform="translate(355.4375,308.875)"/>
<path d="M0 0 C2.70583464 1.80388976 3.98344386 2.9712499 5.625 5.75 C6.01737205 9.78881633 5.7576831 13.6810516 5.625 17.75 C-0.315 17.75 -6.255 17.75 -12.375 17.75 C-11.385 19.07 -10.395 20.39 -9.375 21.75 C-5.94735945 22.23517403 -5.94735945 22.23517403 -2.1875 22 C-0.27904297 21.94585937 -0.27904297 21.94585937 1.66796875 21.890625 C2.64378906 21.84421875 3.61960937 21.7978125 4.625 21.75 C4.625 24.06 4.625 26.37 4.625 28.75 C0.67717867 30.59869991 -2.52809242 31.04726551 -6.875 31.0625 C-7.9784375 31.07925781 -9.081875 31.09601563 -10.21875 31.11328125 C-14.60039795 30.60895791 -17.2402695 29.04683486 -20.125 25.75 C-22.29422307 22.27924308 -22.53508809 19.37713949 -22.5625 15.375 C-22.57667969 14.43914062 -22.59085937 13.50328125 -22.60546875 12.5390625 C-22.1230525 6.70100816 -19.71801869 3.56338226 -15.375 -0.25 C-10.12782664 -1.99905779 -5.18344425 -1.91979417 0 0 Z " fill="#F9F9F9" transform="translate(386.375,309.25)"/>
<path d="M0 0 C3.3 0 6.6 0 10 0 C10 2.64 10 5.28 10 8 C12.31 8 14.62 8 17 8 C17 10.64 17 13.28 17 16 C14.69 16 12.38 16 10 16 C10 20.62 10 25.24 10 30 C12.64 30 15.28 30 18 30 C18 32.64 18 35.28 18 38 C13.80642919 40.09678541 8.55524691 39.55270329 4 39 C0.51757609 36.47353559 -0.65226822 35.04319535 -2 31 C-2.07029121 28.42734182 -2.09370832 25.88358569 -2.0625 23.3125 C-2.05798828 22.61060547 -2.05347656 21.90871094 -2.04882812 21.18554688 C-2.03706927 19.45699462 -2.01913454 17.72848635 -2 16 C-3.32 16 -4.64 16 -6 16 C-6 13.69 -6 11.38 -6 9 C-4.68 8.67 -3.36 8.34 -2 8 C-1.34 5.36 -0.68 2.72 0 0 Z " fill="#F5F5F6" transform="translate(212,301)"/>
<path d="M0 0 C3.3 0 6.6 0 10 0 C10 2.64 10 5.28 10 8 C12.31 8 14.62 8 17 8 C17 10.64 17 13.28 17 16 C14.69 16 12.38 16 10 16 C10.495 22.93 10.495 22.93 11 30 C12.98 30.33 14.96 30.66 17 31 C17 33.31 17 35.62 17 38 C12.66354708 39.44548431 8.52667065 39.67142005 4 39 C0.9375 36.5625 0.9375 36.5625 -1 34 C-1.33 33.67 -1.66 33.34 -2 33 C-2.07325168 30.13732433 -2.09238205 27.299281 -2.0625 24.4375 C-2.05798828 23.63119141 -2.05347656 22.82488281 -2.04882812 21.99414062 C-2.03700518 19.99606244 -2.01906914 17.99802217 -2 16 C-3.32 16 -4.64 16 -6 16 C-6 13.69 -6 11.38 -6 9 C-4.35 8.67 -2.7 8.34 -1 8 C-0.67 5.36 -0.34 2.72 0 0 Z " fill="#F7F7F8" transform="translate(254,301)"/>
<path d="M0 0 C0.56074219 0.32226562 1.12148437 0.64453125 1.69921875 0.9765625 C1.69921875 3.2865625 1.69921875 5.5965625 1.69921875 7.9765625 C0.91675781 8.03714844 0.13429687 8.09773438 -0.671875 8.16015625 C-1.68378906 8.24394531 -2.69570312 8.32773437 -3.73828125 8.4140625 C-4.74761719 8.49527344 -5.75695312 8.57648438 -6.796875 8.66015625 C-9.23718904 8.70867718 -9.23718904 8.70867718 -10.30078125 9.9765625 C-10.37322178 11.99620449 -10.38455313 14.01823374 -10.36328125 16.0390625 C-10.34265625 17.9984375 -10.32203125 19.9578125 -10.30078125 21.9765625 C-6.34078125 21.9765625 -2.38078125 21.9765625 1.69921875 21.9765625 C1.88671875 25.3515625 1.88671875 25.3515625 1.69921875 28.9765625 C-3.19115921 32.23681447 -8.58571261 31.53190127 -14.30078125 30.9765625 C-18.49330198 29.1694415 -19.81271997 27.77372926 -22.17578125 23.9140625 C-24.35507076 17.85903056 -24.39101246 11.37507117 -21.73828125 5.5390625 C-15.87572848 -0.624134 -8.22935311 -3.6605951 0 0 Z " fill="#F7F8F8" transform="translate(203.30078125,309.0234375)"/>
<path d="M0 0 C3.63 0 7.26 0 11 0 C11.33 11.55 11.66 23.1 12 35 C13.32 35.33 14.64 35.66 16 36 C16.04241723 38.33294775 16.04092937 40.66702567 16 43 C14.27152533 44.72847467 12.0426665 44.29389493 9.6875 44.375 C8.72199219 44.42398438 7.75648438 44.47296875 6.76171875 44.5234375 C4 44 4 44 1.85180664 42.03100586 C-0.6703449 37.90279077 -0.50894544 34.72168422 -0.390625 29.98046875 C-0.38496521 29.12189774 -0.37930542 28.26332672 -0.37347412 27.3787384 C-0.35115787 24.6477484 -0.30097167 21.91809061 -0.25 19.1875 C-0.2299288 17.33139921 -0.21167911 15.47527777 -0.1953125 13.61914062 C-0.15130881 9.07891704 -0.08231521 4.53968407 0 0 Z " fill="#FDFDFD" transform="translate(209,237)"/>
<path d="M0 0 C2.39453125 1.03125 2.39453125 1.03125 4 2 C4 3.65 4 5.3 4 7 C3.360625 6.835 2.72125 6.67 2.0625 6.5 C-2.39499414 5.77224585 -7.85965115 4.92982558 -12 7 C-11.95196558 9.43588957 -11.95196558 9.43588957 -11 12 C-8.41815475 13.52223554 -8.41815475 13.52223554 -5.25 14.5 C3.24276112 17.76566886 3.24276112 17.76566886 6 22 C6.95345802 26.29493476 6.53877518 29.11486935 4.25 32.875 C-0.5375948 37.39661731 -4.6790142 37.3554778 -11.0703125 37.26953125 C-14.78017384 36.92822401 -16.93007653 36.04661564 -20 34 C-20 32.35 -20 30.7 -20 29 C-19.29230469 29.16242188 -18.58460938 29.32484375 -17.85546875 29.4921875 C-14.94589394 30.00962215 -12.26487098 30.13305558 -9.3125 30.125 C-8.35988281 30.12757812 -7.40726562 30.13015625 -6.42578125 30.1328125 C-3.99003502 30.16070409 -3.99003502 30.16070409 -2 29 C-2 27.35 -2 25.7 -2 24 C-2.88042969 23.70867187 -3.76085937 23.41734375 -4.66796875 23.1171875 C-16.86046512 18.81395349 -16.86046512 18.81395349 -20 13 C-20.76855014 9.41343268 -20.86847957 7.37685785 -18.87890625 4.22265625 C-13.67906702 -1.28839531 -7.12671443 -0.96886052 0 0 Z " fill="#F5F6F6" transform="translate(277,97)"/>
<path d="M0 0 C0.99 0 1.98 0 3 0 C3 11.22 3 22.44 3 34 C1.68 33.67 0.36 33.34 -1 33 C-1.61875 33.309375 -2.2375 33.61875 -2.875 33.9375 C-5.80543137 35.40271569 -7.75880545 35.39688097 -11 35 C-14.50420484 32.77005147 -16.42387593 30.80780418 -18 27 C-18.74148241 22.25796134 -18.43787689 18.83045617 -16.1875 14.5625 C-14 12 -14 12 -11 10 C-8.80859375 9.98828125 -8.80859375 9.98828125 -6.4375 10.3125 C-5.25994141 10.46138672 -5.25994141 10.46138672 -4.05859375 10.61328125 C-2 11 -2 11 0 12 C0 8.04 0 4.08 0 0 Z " fill="#434E5A" transform="translate(330,144)"/>
<path d="M0 0 C3.00197464 1.80118478 4.45166366 2.90332732 6 6 C6.12207871 7.78859511 6.17548448 9.58228381 6.1875 11.375 C6.20167969 12.33148438 6.21585938 13.28796875 6.23046875 14.2734375 C5.90016714 18.18107347 4.91753328 20.22148692 1.9375 22.75 C-2.1254927 24.47893306 -5.65215163 24.84053308 -10 24 C-13.06765423 22.27803193 -15.40321354 20.19357293 -17 17 C-17.51124099 11.79539913 -17.86132441 7.43554069 -15.125 2.875 C-10.67719675 -1.04953228 -5.69768983 -0.6166331 0 0 Z " fill="#F6F7F7" transform="translate(115,400)"/>
<path d="M0 0 C3.00197464 1.80118478 4.45166366 2.90332732 6 6 C6.41079745 10.90586951 6.62569374 15.46705034 4.75 20.0625 C2.4195584 22.64263177 0.28469049 23.77809891 -3.1484375 24.37109375 C-7.34208921 24.49616757 -10.14781745 24.37572369 -13.5 21.6875 C-17.36959303 17.5276875 -17.33266308 13.88734166 -17.29296875 8.44921875 C-16.88206478 5.01406155 -15.52072694 3.29830986 -13 1 C-9.0649579 -0.96752105 -4.2894478 -0.46422595 0 0 Z " fill="#F6F7F7" transform="translate(331,400)"/>
<path d="M0 0 C3.3 0 6.6 0 10 0 C10 1.32 10 2.64 10 4 C10.680625 3.34 11.36125 2.68 12.0625 2 C15.64457375 -0.43885872 17.75519536 -0.33292585 22 0 C22 2.97 22 5.94 22 9 C18.7 9.66 15.4 10.32 12 11 C11.67 17.6 11.34 24.2 11 31 C7.37 31 3.74 31 0 31 C0 20.77 0 10.54 0 0 Z " fill="#F8F8F8" transform="translate(397,309)"/>
<path d="M0 0 C2.97 0 5.94 0 9 0 C9.66 0.99 10.32 1.98 11 3 C11.515625 2.505 12.03125 2.01 12.5625 1.5 C15.80680017 -0.49649241 18.26217334 -0.21564385 22 0 C22 3.3 22 6.6 22 10 C18.37 10 14.74 10 11 10 C11 16.6 11 23.2 11 30 C7.37 30 3.74 30 0 30 C0 20.1 0 10.2 0 0 Z " fill="#FBFCFC" transform="translate(124,309)"/>
<path d="M0 0 C13.52506793 -0.40985054 13.52506793 -0.40985054 18 3 C20.9657349 7.44860234 20.64087636 11.78143535 20 17 C18.19881522 20.00197464 17.09667268 21.45166366 14 23 C9.33091139 23.13996069 4.67201378 23.04247285 0 23 C0 15.41 0 7.82 0 0 Z " fill="#FAFBFB" transform="translate(201,400)"/>
<path d="M0 0 C2.31 0 4.62 0 7 0 C9.21484375 2.625 9.21484375 2.625 10.9375 6 C11.52402344 7.11375 12.11054688 8.2275 12.71484375 9.375 C13.13894531 10.24125 13.56304687 11.1075 14 12 C14.33 8.04 14.66 4.08 15 0 C16.98 0 18.96 0 21 0 C21 7.92 21 15.84 21 24 C18.69 24 16.38 24 14 24 C11.78515625 21.375 11.78515625 21.375 10.0625 18 C9.47597656 16.88625 8.88945312 15.7725 8.28515625 14.625 C7.64900391 13.325625 7.64900391 13.325625 7 12 C6.67 15.96 6.34 19.92 6 24 C4.02 24 2.04 24 0 24 C0 16.08 0 8.16 0 0 Z " fill="#F5F5F6" transform="translate(167,400)"/>
<path d="M0 0 C3.96 0 7.92 0 12 0 C12 10.23 12 20.46 12 31 C8.04 31 4.08 31 0 31 C0 20.77 0 10.54 0 0 Z " fill="#F3F4F5" transform="translate(275,309)"/>
<path d="M0 0 C3.63 0 7.26 0 11 0 C11 10.23 11 20.46 11 31 C7.37 31 3.74 31 0 31 C0 20.77 0 10.54 0 0 Z " fill="#F7F7F8" transform="translate(234,309)"/>
<path d="M0 0 C2.31 0 4.62 0 7 0 C7.33 5.61 7.66 11.22 8 17 C9.65 17.33 11.3 17.66 13 18 C13.495 9.09 13.495 9.09 14 0 C16.31 0 18.62 0 21 0 C21.11644156 3.08301416 21.18732432 6.16546123 21.25 9.25 C21.30027344 10.55904297 21.30027344 10.55904297 21.3515625 11.89453125 C21.45077212 18.39276152 21.45077212 18.39276152 19.109375 21.546875 C14.87062172 24.46690504 11.06397951 24.79589315 6 24 C2.71824682 21.47031526 1.30756223 19.92268669 0 16 C-0.07051114 13.26134713 -0.09357765 10.54972412 -0.0625 7.8125 C-0.05798828 7.06291016 -0.05347656 6.31332031 -0.04882812 5.54101562 C-0.03706354 3.69397617 -0.01912865 1.84697787 0 0 Z " fill="#F3F4F5" transform="translate(133,400)"/>
<path d="M0 0 C2.31 0 4.62 0 7 0 C9.31 4.29 11.62 8.58 14 13 C14.33 8.71 14.66 4.42 15 0 C16.65 0 18.3 0 20 0 C20 7.59 20 15.18 20 23 C17.69 23 15.38 23 13 23 C10.78515625 20.375 10.78515625 20.375 9.0625 17 C8.47597656 15.88625 7.88945312 14.7725 7.28515625 13.625 C6.64900391 12.325625 6.64900391 12.325625 6 11 C5.67 14.96 5.34 18.92 5 23 C3.35 23 1.7 23 0 23 C0 15.41 0 7.82 0 0 Z " fill="#FDFDFD" transform="translate(350,400)"/>
<path d="M0 0 C2.64 0 5.28 0 8 0 C9.15201097 3.06021145 10.29549903 6.12354044 11.4375 9.1875 C11.92573242 10.48397461 11.92573242 10.48397461 12.42382812 11.80664062 C12.73642578 12.64775391 13.04902344 13.48886719 13.37109375 14.35546875 C13.65911865 15.12528076 13.94714355 15.89509277 14.24389648 16.68823242 C15.03501255 19.10705001 15.54902445 21.49737603 16 24 C13.69 24 11.38 24 9 24 C8.67 22.35 8.34 20.7 8 19 C5.36 19 2.72 19 0 19 C-0.33 20.32 -0.66 21.64 -1 23 C-2.98 23 -4.96 23 -7 23 C-6.33654156 17.74272175 -4.74419696 13.07140932 -2.9375 8.125 C-2.65583984 7.34125 -2.37417969 6.5575 -2.08398438 5.75 C-1.39386218 3.83169424 -0.69755684 1.91561481 0 0 Z " fill="#F5F6F6" transform="translate(239,400)"/>
<path d="M0 0 C2.64 0 5.28 0 8 0 C9.17430074 3.2681432 10.33811256 6.53992515 11.5 9.8125 C11.83386719 10.74126953 12.16773438 11.67003906 12.51171875 12.62695312 C12.82753906 13.51962891 13.14335937 14.41230469 13.46875 15.33203125 C13.76201172 16.15421143 14.05527344 16.9763916 14.35742188 17.82348633 C15 20 15 20 15 23 C12.69 23 10.38 23 8 23 C7.67 21.68 7.34 20.36 7 19 C4.69 19 2.38 19 0 19 C-0.33 20.65 -0.66 22.3 -1 24 C-3.31 24 -5.62 24 -8 24 C-5.96136383 15.72943539 -3.17712327 7.89885589 0 0 Z " fill="#EDEEEF" transform="translate(389,400)"/>
<path d="M0 0 C3.38031589 1.18767855 3.93216817 1.89825225 6 5 C6 7.64 6 10.28 6 13 C0.39 13 -5.22 13 -11 13 C-9.46687233 17.31608796 -9.46687233 17.31608796 -7 21 C-4.98035801 21.07244053 -2.95832876 21.08377188 -0.9375 21.0625 C0.16722656 21.05347656 1.27195313 21.04445312 2.41015625 21.03515625 C3.26480469 21.02355469 4.11945313 21.01195312 5 21 C5 21.99 5 22.98 5 24 C1.04603037 25.97698481 -3.70119353 25.57069292 -8 25 C-10.89683868 22.7984026 -12.39297231 21.21405538 -14 18 C-15.03037808 8.99155166 -15.03037808 8.99155166 -12.953125 4.9765625 C-8.91211032 0.10357421 -6.15751622 -0.31849222 0 0 Z " fill="#EDEEEF" transform="translate(207,154)"/>
<path d="M0 0 C3 2 3 2 5 5 C5 7.64 5 10.28 5 13 C-0.61 13 -6.22 13 -12 13 C-10.46687233 17.31608796 -10.46687233 17.31608796 -8 21 C-5.98035801 21.07244053 -3.95832876 21.08377188 -1.9375 21.0625 C-0.83277344 21.05347656 0.27195312 21.04445312 1.41015625 21.03515625 C2.26480469 21.02355469 3.11945313 21.01195312 4 21 C4 21.99 4 22.98 4 24 C0.54820431 25.72589785 -3.21866039 25.36043965 -7 25 C-10.14847243 23.699544 -11.61740061 22.4485648 -13.8125 19.875 C-15.47473733 15.85063594 -15.57800081 12.29595194 -15 8 C-12.06254753 1.24385932 -7.38871494 -1.52163634 0 0 Z " fill="#EFF0F1" transform="translate(303,154)"/>
<path d="M0 0 C0.99 0 1.98 0 3 0 C3 11.22 3 22.44 3 34 C1.68 33.67 0.36 33.34 -1 33 C-1.61875 33.309375 -2.2375 33.61875 -2.875 33.9375 C-5.80543137 35.40271569 -7.75880545 35.39688097 -11 35 C-14.50420484 32.77005147 -16.42387593 30.80780418 -18 27 C-18.74148241 22.25796134 -18.43787689 18.83045617 -16.1875 14.5625 C-14 12 -14 12 -11 10 C-8.80859375 9.98828125 -8.80859375 9.98828125 -6.4375 10.3125 C-5.25994141 10.46138672 -5.25994141 10.46138672 -4.05859375 10.61328125 C-2 11 -2 11 0 12 C0 8.04 0 4.08 0 0 Z M-13.4375 15 C-15.43513042 18.83545041 -15.73699941 21.75796851 -15 26 C-13.84367254 28.36293002 -12.85016245 30.14983755 -11 32 C-6.38017308 32.26149964 -4.22515948 32.11257974 0 30 C0 25.05 0 20.1 0 15 C-4.96389065 12.51805468 -8.87348265 11.25516525 -13.4375 15 Z " fill="#FCFCFC" transform="translate(330,144)"/>
<path d="M0 0 C6.27 0 12.54 0 19 0 C19 1.65 19 3.3 19 5 C17.02 5 15.04 5 13 5 C13 11.27 13 17.54 13 24 C10.69 24 8.38 24 6 24 C6 17.73 6 11.46 6 5 C4.02 5 2.04 5 0 5 C0 3.35 0 1.7 0 0 Z " fill="#F7F8F8" transform="translate(264,400)"/>
<path d="M0 0 C0.33 0.99 0.66 1.98 1 3 C-1.31 3.33 -3.62 3.66 -6 4 C-6.33 6.64 -6.66 9.28 -7 12 C-2.05 12 2.9 12 8 12 C8 19.59 8 27.18 8 35 C7.01 35 6.02 35 5 35 C5 28.07 5 21.14 5 14 C1.04 14 -2.92 14 -7 14 C-7 20.93 -7 27.86 -7 35 C-7.99 35 -8.98 35 -10 35 C-10 28.07 -10 21.14 -10 14 C-11.32 14 -12.64 14 -14 14 C-14 13.34 -14 12.68 -14 12 C-12.68 12 -11.36 12 -10 12 C-10.03480469 11.38511719 -10.06960938 10.77023438 -10.10546875 10.13671875 C-10.13253906 9.32847656 -10.15960938 8.52023438 -10.1875 7.6875 C-10.23970703 6.48673828 -10.23970703 6.48673828 -10.29296875 5.26171875 C-10 3 -10 3 -8.71875 1.21875 C-5.96762333 -0.73204891 -3.25876943 -0.18445865 0 0 Z " fill="#F4F5F5" transform="translate(274,143)"/>
<path d="M0 0 C4.95 0 9.9 0 15 0 C15 1.65 15 3.3 15 5 C12.03 5 9.06 5 6 5 C6 6.65 6 8.3 6 10 C8.31 10 10.62 10 13 10 C13 11.65 13 13.3 13 15 C10.69 15 8.38 15 6 15 C6 17.64 6 20.28 6 23 C4.02 23 2.04 23 0 23 C0 15.41 0 7.82 0 0 Z " fill="#FFFFFF" transform="translate(72,400)"/>
<path d="M0 0 C1.98 0 3.96 0 6 0 C6 5.94 6 11.88 6 18 C9.3 18 12.6 18 16 18 C16 19.65 16 21.3 16 23 C10.72 23 5.44 23 0 23 C0 15.41 0 7.82 0 0 Z " fill="#FDFDFD" transform="translate(416,400)"/>
<path d="M0 0 C1.32 0.66 2.64 1.32 4 2 C2.6415798 5.04332765 1.11536976 7.12309151 -1.2578125 9.453125 C-2.19560547 10.38125 -2.19560547 10.38125 -3.15234375 11.328125 C-3.80332031 11.96234375 -4.45429688 12.5965625 -5.125 13.25 C-5.78371094 13.8996875 -6.44242187 14.549375 -7.12109375 15.21875 C-8.74296643 16.81711727 -10.3693281 18.41061897 -12 20 C-15.74020498 18.31847927 -17.56134348 16.30960527 -20 13 C-18.875 11.4375 -18.875 11.4375 -17 10 C-16.0925 10.2475 -15.185 10.495 -14.25 10.75 C-10.80210476 11.38016876 -10.80210476 11.38016876 -8.0078125 8.69140625 C-7.02844836 7.66572083 -6.06781175 6.62188222 -5.125 5.5625 C-4.62742187 5.03333984 -4.12984375 4.50417969 -3.6171875 3.95898438 C-2.39500826 2.65454308 -1.19521173 1.32919454 0 0 Z " fill="#FEFCFA" transform="translate(320,106)"/>
<path d="M0 0 C0.98484375 0.02707031 1.9696875 0.05414063 2.984375 0.08203125 C3.73203125 0.11683594 4.4796875 0.15164062 5.25 0.1875 C5.70761159 4.1229597 5.54742742 5.75994809 3.25 9.0625 C-0.84551776 11.96349175 -2.81770767 11.83435801 -7.75 11.1875 C-9.89762184 7.96606724 -10.311068 6.9279533 -9.75 3.1875 C-6.61974117 0.09398129 -4.30689314 -0.15381761 0 0 Z " fill="#515A66" transform="translate(189.75,116.8125)"/>
<path d="M0 0 C1.98 0 3.96 0 6 0 C6 7.59 6 15.18 6 23 C4.02 23 2.04 23 0 23 C0 15.41 0 7.82 0 0 Z " fill="#FFFFFF" transform="translate(295,400)"/>
<path d="M0 0 C3.0625 -0.25 3.0625 -0.25 6 0 C7 1 7 1 7.1328125 4.125 C7.13023437 5.40375 7.12765625 6.6825 7.125 8 C7.12757813 9.27875 7.13015625 10.5575 7.1328125 11.875 C7 15 7 15 6 16 C3.0625 16.25 3.0625 16.25 0 16 C-2.15942819 12.76085771 -2.27232978 11.75140267 -2.25 8 C-2.25515625 7.13375 -2.2603125 6.2675 -2.265625 5.375 C-2 3 -2 3 0 0 Z " fill="#4A5461" transform="translate(312,257)"/>
<path d="M0 0 C0.99 0.33 1.98 0.66 3 1 C3 1.99 3 2.98 3 4 C2.31292969 3.95359375 1.62585938 3.9071875 0.91796875 3.859375 C0.01691406 3.82328125 -0.88414062 3.7871875 -1.8125 3.75 C-3.15248047 3.68039063 -3.15248047 3.68039063 -4.51953125 3.609375 C-7.11018838 3.77450389 -7.11018838 3.77450389 -8.80078125 5.734375 C-10.11644706 8.2199977 -10.40370007 9.70652626 -10.375 12.5 C-10.38273438 13.2528125 -10.39046875 14.005625 -10.3984375 14.78125 C-9.88522165 17.63915786 -9.09195608 18.98518763 -7 21 C-4.49119384 21.48261667 -4.49119384 21.48261667 -1.8125 21.25 C-0.46091797 21.19585937 -0.46091797 21.19585937 0.91796875 21.140625 C1.60503906 21.09421875 2.29210937 21.0478125 3 21 C2.67 22.32 2.34 23.64 2 25 C-2.72978358 25.47297836 -6.6327178 25.83439337 -10.5 22.75 C-14.23166201 18.64517178 -14.39508408 14.66773779 -14.359375 9.2578125 C-13.74451091 5.39486202 -11.79210074 3.65914356 -9 1 C-6.01002175 -0.49498913 -3.29957225 -0.11577446 0 0 Z " fill="#EDEEEF" transform="translate(187,154)"/>
<path d="M0 0 C0.99 0 1.98 0 3 0 C3 2.31 3 4.62 3 7 C5.31 7 7.62 7 10 7 C10 7.66 10 8.32 10 9 C7.69 9 5.38 9 3 9 C3.33 14.94 3.66 20.88 4 27 C5.98 27.33 7.96 27.66 10 28 C10 28.66 10 29.32 10 30 C3.9453125 30.1953125 3.9453125 30.1953125 2 30 C0 28 0 28 -0.22705078 26.02880859 C-0.21657715 25.24328613 -0.20610352 24.45776367 -0.1953125 23.6484375 C-0.18886719 22.79765625 -0.18242187 21.946875 -0.17578125 21.0703125 C-0.15902344 20.18085938 -0.14226562 19.29140625 -0.125 18.375 C-0.11597656 17.4778125 -0.10695312 16.580625 -0.09765625 15.65625 C-0.0740497 13.43723414 -0.0411231 11.21874923 0 9 C-1.32 9 -2.64 9 -4 9 C-4 8.34 -4 7.68 -4 7 C-2.68 7 -1.36 7 0 7 C0 4.69 0 2.38 0 0 Z " fill="#F4F5F5" transform="translate(237,148)"/>
<path d="M0 0 C2.4375 0.375 2.4375 0.375 5 1 C6.23184766 3.46369532 6.16732342 5.1894501 6.1875 7.9375 C6.20167969 8.81277344 6.21585937 9.68804687 6.23046875 10.58984375 C6 13 6 13 4 16 C1.5 16.375 1.5 16.375 -1 16 C-3.67548031 11.98677954 -3.58740465 8.71626345 -3 4 C-1.5 1.4375 -1.5 1.4375 0 0 Z " fill="#404B58" transform="translate(306,316)"/>
<path d="M0 0 C0.99 0.66 1.98 1.32 3 2 C3.375 5.5 3.375 5.5 3 9 C-0.67346771 11.44897847 -2.66356399 11.31537716 -7 11 C-9 9 -9 9 -9.3125 5.5 C-9.209375 4.345 -9.10625 3.19 -9 2 C-5.53001271 -0.31332486 -4.07490752 -0.33957563 0 0 Z " fill="#F9F9F9" transform="translate(284,294)"/>
<path d="M0 0 C0.99 0.66 1.98 1.32 3 2 C3.3125 5.5 3.3125 5.5 3 9 C1 11 1 11 -0.875 11.265625 C-1.57625 11.26046875 -2.2775 11.2553125 -3 11.25 C-3.70125 11.25515625 -4.4025 11.2603125 -5.125 11.265625 C-7 11 -7 11 -9 9 C-9.33015665 5.89652746 -9.50531294 3.84218824 -7.875 1.125 C-5.14747535 -0.51151479 -3.12026907 -0.32502803 0 0 Z " fill="#F8F9F9" transform="translate(242,294)"/>
<path d="M0 0 C4.55555556 0.55555556 4.55555556 0.55555556 6 2 C6.12514928 3.97619447 6.1757276 5.95738173 6.1875 7.9375 C6.20167969 9.01902344 6.21585938 10.10054688 6.23046875 11.21484375 C6 14 6 14 4 16 C-0.55555556 15.44444444 -0.55555556 15.44444444 -2 14 C-2.12514928 12.02380553 -2.1757276 10.04261827 -2.1875 8.0625 C-2.20167969 6.98097656 -2.21585938 5.89945312 -2.23046875 4.78515625 C-2 2 -2 2 0 0 Z " fill="#444E5B" transform="translate(241,257)"/>
<path d="M0 0 C0.80824219 0.11085937 1.61648438 0.22171875 2.44921875 0.3359375 C3.37154297 0.47902344 3.37154297 0.47902344 4.3125 0.625 C4.3125 1.615 4.3125 2.605 4.3125 3.625 C3.39017578 3.55539063 3.39017578 3.55539063 2.44921875 3.484375 C-2.45903714 3.13947679 -2.45903714 3.13947679 -6.75 5.125 C-8.53437603 9.88333608 -8.36365597 13.95240365 -6.5 18.5625 C-4.30739153 21.05753722 -2.94427898 21.36093684 0.3125 21.625 C0.6425 22.615 0.9725 23.605 1.3125 24.625 C-2.41960035 24.97217213 -4.22820458 24.9172789 -7.4375 22.875 C-10.71548171 19.59701829 -11.98114238 16.88738427 -12.0625 12.25 C-11.96519889 7.70678678 -10.6735 5.12288571 -7.6875 1.625 C-4.33422361 -0.61051759 -3.78006343 -0.54783528 0 0 Z " fill="#EDEEEF" transform="translate(323.6875,154.375)"/>
<path d="M0 0 C2.5 0.25 2.5 0.25 4.5 2.25 C4.80078125 4.30859375 4.80078125 4.30859375 4.8125 6.6875 C4.82925781 7.46996094 4.84601563 8.25242187 4.86328125 9.05859375 C4.41686748 11.7514768 3.68419956 12.65205828 1.5 14.25 C-1.125 14.0625 -1.125 14.0625 -3.5 13.25 C-4.67673198 10.89653604 -4.66623866 9.3693967 -4.6875 6.75 C-4.70167969 5.9559375 -4.71585937 5.161875 -4.73046875 4.34375 C-4.36961828 1.06551523 -3.1957215 0.31957215 0 0 Z " fill="#34404E" transform="translate(325.5,404.75)"/>
<path d="M0 0 C2.5 0.25 2.5 0.25 4.5 2.25 C4.80078125 4.30859375 4.80078125 4.30859375 4.8125 6.6875 C4.82925781 7.46996094 4.84601563 8.25242187 4.86328125 9.05859375 C4.41686748 11.7514768 3.68419956 12.65205828 1.5 14.25 C-1.125 14.0625 -1.125 14.0625 -3.5 13.25 C-4.67673198 10.89653604 -4.66623866 9.3693967 -4.6875 6.75 C-4.70167969 5.9559375 -4.71585937 5.161875 -4.73046875 4.34375 C-4.36961828 1.06551523 -3.1957215 0.31957215 0 0 Z " fill="#404B58" transform="translate(109.5,404.75)"/>
<path d="M0 0 C1.9375 1.1875 1.9375 1.1875 3 3 C3 4.65 3 6.3 3 8 C-1.62 8 -6.24 8 -11 8 C-10 3 -10 3 -8.875 1.1875 C-5.89044769 -0.70271646 -3.43459566 -0.36799239 0 0 Z " fill="#525B67" transform="translate(207,157)"/>
<path d="M0 0 C1.9375 1.1875 1.9375 1.1875 3 3 C3 4.65 3 6.3 3 8 C-1.62 8 -6.24 8 -11 8 C-10 3 -10 3 -8.875 1.1875 C-5.89044769 -0.70271646 -3.43459566 -0.36799239 0 0 Z " fill="#4D5762" transform="translate(302,157)"/>
<path d="M0 0 C5.625 -0.25 5.625 -0.25 9 2 C9.39964378 5.1305429 9.52149743 7.13083761 7.875 9.875 C5.21965017 11.4682099 3.03210482 11.20214032 0 11 C0 7.37 0 3.74 0 0 Z " fill="#48525E" transform="translate(99,307)"/>
<path d="M0 0 C0.99 0 1.98 0 3 0 C3 0.66 3 1.32 3 2 C3.99 1.34 4.98 0.68 6 0 C9.1875 -0.125 9.1875 -0.125 12 0 C12 0.66 12 1.32 12 2 C10.865625 2.309375 9.73125 2.61875 8.5625 2.9375 C5.21224901 3.62924531 5.21224901 3.62924531 4 5 C3.84417697 6.34015221 3.74955858 7.68758903 3.68359375 9.03515625 C3.62075195 10.24848633 3.62075195 10.24848633 3.55664062 11.48632812 C3.51732422 12.33646484 3.47800781 13.18660156 3.4375 14.0625 C3.39431641 14.91650391 3.35113281 15.77050781 3.30664062 16.65039062 C3.20023298 18.76672037 3.09958269 20.88333813 3 23 C2.01 23 1.02 23 0 23 C0 15.41 0 7.82 0 0 Z " fill="#F1F1F2" transform="translate(218,155)"/>
<path d="M0 0 C1.65 0 3.3 0 5 0 C7 2 7 2 7.265625 4.09375 C7.26046875 4.8878125 7.2553125 5.681875 7.25 6.5 C7.25515625 7.2940625 7.2603125 8.088125 7.265625 8.90625 C7 11 7 11 5 13 C3.35 13 1.7 13 0 13 C0 8.71 0 4.42 0 0 Z " fill="#4A5460" transform="translate(207,405)"/>
<path d="M0 0 C0.99 0 1.98 0 3 0 C3 7.59 3 15.18 3 23 C2.01 23 1.02 23 0 23 C0 15.41 0 7.82 0 0 Z " fill="#EFF0F1" transform="translate(252,155)"/>
<path d="M0 0 C0.33 0.99 0.66 1.98 1 3 C-3.455 3.495 -3.455 3.495 -8 4 C-8.33 6.64 -8.66 9.28 -9 12 C-9.33 12 -9.66 12 -10 12 C-10.08131463 10.56344146 -10.13933559 9.1255517 -10.1875 7.6875 C-10.22230469 6.88699219 -10.25710938 6.08648437 -10.29296875 5.26171875 C-10 3 -10 3 -8.71875 1.21875 C-5.96762333 -0.73204891 -3.25876943 -0.18445865 0 0 Z " fill="#E0E2E4" transform="translate(274,143)"/>
<path d="M0 0 C1.2065625 0.0309375 1.2065625 0.0309375 2.4375 0.0625 C2.4375 1.7125 2.4375 3.3625 2.4375 5.0625 C0.7875 5.3925 -0.8625 5.7225 -2.5625 6.0625 C-2.94468767 4.40635343 -3.27645102 2.73792976 -3.5625 1.0625 C-2.5625 0.0625 -2.5625 0.0625 0 0 Z " fill="#49525F" transform="translate(161.5625,326.9375)"/>
<path d="M0 0 C6.625 -0.125 6.625 -0.125 10 1 C10 1.99 10 2.98 10 4 C6.04 4 2.08 4 -2 4 C-1.34 2.68 -0.68 1.36 0 0 Z " fill="#E3E5E7" transform="translate(180,154)"/>
<path d="M0 0 C1.8125 0.8125 1.8125 0.8125 2.8125 2.8125 C1.4821875 3.245625 1.4821875 3.245625 0.125 3.6875 C-2.69132424 4.64398748 -5.43833156 5.68048946 -8.1875 6.8125 C-6.60026221 2.97667534 -4.54481288 -0.38955539 0 0 Z " fill="#E7E8EA" transform="translate(297.1875,154.1875)"/>
<path d="M0 0 C1.65 0 3.3 0 5 0 C5.33 1.32 5.66 2.64 6 4 C3.69 4 1.38 4 -1 4 C-0.67 2.68 -0.34 1.36 0 0 Z " fill="#35404E" transform="translate(376,316)"/>
<path d="M0 0 C0.66 0.33 1.32 0.66 2 1 C2.625 4.0625 2.625 4.0625 3 7 C1.68 7 0.36 7 -1 7 C-0.67 4.69 -0.34 2.38 0 0 Z " fill="#545E69" transform="translate(242,407)"/>
</svg>
